<svg width="400px" height="400px" version="1.1" xmlns="http://www.w3.org/2000/svg" xmlns:xlink="http://www.w3.org/1999/xlink" xml:space="preserve" fill="currentColor" style="fill-rule:evenodd;clip-rule:evenodd;stroke-linejoin:round;stroke-miterlimit:2;"><g><path d="M122.724,318.203l-18.7,34.531l20.892,11.315l3.982,-7.351l-11.898,-6.444l3.719,-6.867l10.737,5.814l3.824,-7.061l-10.737,-5.814l3.196,-5.901l11.462,6.208l3.981,-7.351l-20.458,-11.079Z" style="fill-rule:nonzero;stroke:currentColor;stroke-width:1px;"/><path d="M145.998,330.708l-11.426,37.571l14.208,4.321c2.842,0.864 5.209,1.019 7.102,0.464c1.894,-0.555 3.499,-1.581 4.816,-3.077c1.318,-1.497 2.408,-3.35 3.272,-5.559c0.863,-2.209 1.668,-4.542 2.415,-6.997c0.747,-2.456 1.376,-4.842 1.889,-7.158c0.513,-2.316 0.639,-4.462 0.377,-6.439c-0.261,-1.976 -1.024,-3.722 -2.287,-5.237c-1.264,-1.515 -3.317,-2.704 -6.159,-3.568l-14.207,-4.321Zm0.506,33.496l7.137,-23.468l1.947,0.592c0.947,0.288 1.661,0.649 2.143,1.082c0.481,0.434 0.743,1.117 0.785,2.05c0.042,0.933 -0.128,2.184 -0.51,3.754c-0.381,1.57 -0.956,3.618 -1.724,6.144c-0.768,2.526 -1.431,4.547 -1.988,6.064c-0.557,1.517 -1.113,2.651 -1.667,3.402c-0.554,0.752 -1.152,1.174 -1.793,1.266c-0.641,0.092 -1.436,-0.005 -2.383,-0.293l-1.947,-0.593Z" style="fill-rule:nonzero;stroke:currentColor;stroke-width:1px;"/><path d="M176.425,338.86l-5.112,38.936l10.143,1.332l5.112,-38.936l-10.143,-1.332Z" style="fill-rule:nonzero;stroke:currentColor;stroke-width:1px;"/><path d="M197.251,349.483l0.485,30.576l10.228,-0.162l-0.484,-30.576l7.699,-0.122l-0.138,-8.689l-25.517,0.404l0.138,8.689l7.589,-0.12Z" style="fill-rule:nonzero;stroke:currentColor;stroke-width:1px;"/><path d="M217.935,339.693l6.365,38.751l10.095,-1.658l-6.365,-38.751l-10.095,1.658Z" style="fill-rule:nonzero;stroke:currentColor;stroke-width:1px;"/><path d="M248.125,353.05c-0.847,-2.5 -1.515,-4.587 -2.004,-6.26c-0.49,-1.673 -0.786,-3.034 -0.89,-4.083c-0.103,-1.049 -0.003,-1.838 0.302,-2.367c0.305,-0.529 0.822,-0.917 1.551,-1.164c0.729,-0.247 1.376,-0.253 1.939,-0.018c0.564,0.235 1.123,0.8 1.678,1.696c0.555,0.896 1.147,2.157 1.775,3.783c0.628,1.626 1.366,3.69 2.213,6.19c0.847,2.501 1.515,4.587 2.004,6.26c0.489,1.674 0.786,3.035 0.889,4.083c0.104,1.049 0.003,1.838 -0.302,2.367c-0.304,0.529 -0.821,0.917 -1.551,1.164c-0.729,0.247 -1.375,0.253 -1.939,0.018c-0.563,-0.235 -1.123,-0.8 -1.678,-1.696c-0.555,-0.896 -1.146,-2.157 -1.775,-3.783c-0.628,-1.626 -1.365,-3.689 -2.212,-6.19Zm-10.002,3.388c1.176,3.473 2.405,6.357 3.685,8.652c1.281,2.296 2.704,4.04 4.269,5.232c1.566,1.193 3.311,1.831 5.236,1.914c1.925,0.084 4.121,-0.292 6.587,-1.127c2.465,-0.835 4.437,-1.871 5.916,-3.107c1.478,-1.236 2.476,-2.804 2.995,-4.702c0.518,-1.898 0.588,-4.148 0.211,-6.749c-0.378,-2.602 -1.155,-5.639 -2.331,-9.111c-1.177,-3.473 -2.405,-6.358 -3.686,-8.653c-1.281,-2.296 -2.704,-4.04 -4.269,-5.232c-1.565,-1.193 -3.319,-1.857 -5.262,-1.992c-1.943,-0.136 -4.147,0.214 -6.613,1.049c-2.466,0.835 -4.429,1.897 -5.889,3.185c-1.461,1.288 -2.451,2.882 -2.969,4.78c-0.518,1.898 -0.589,4.148 -0.211,6.749c0.378,2.602 1.155,5.639 2.331,9.112Z" style="fill-rule:nonzero;stroke:currentColor;stroke-width:1px;"/><path d="M260.295,327.936l20.196,33.679l8.207,-4.922l-12.474,-20.802l0.095,-0.056l18.322,17.294l9.623,-5.77l-20.196,-33.679l-8.207,4.921l12.445,20.755l-0.094,0.057l-18.106,-17.361l-9.811,5.884Z" style="fill-rule:nonzero;stroke:currentColor;stroke-width:1px;"/></g><g transform="matrix(1,0,0,1,43.2574,43.2574)"><g transform="matrix(27.7498,-47.4863,47.4863,27.7498,30.8377,101.169)"><path d="M0.277,-0.568l-0.051,0.303l0.104,0l-0.051,-0.303l-0.002,0Zm0.118,-0.146l0.174,0.714l-0.198,0l-0.019,-0.125l-0.148,0l-0.019,0.125l-0.195,0l0.171,-0.714l0.234,0Z" style="fill-rule:nonzero;"/></g><g transform="matrix(37.8348,-39.9191,39.9191,37.8348,46.2955,74.5312)"><path d="M0.044,-0.714l0,0.714l0.174,-0l-0,-0.441l0.002,0l0.124,0.441l0.204,-0l0,-0.714l-0.174,0l0,0.44l-0.002,-0l-0.12,-0.44l-0.208,0Z" style="fill-rule:nonzero;"/></g><g transform="matrix(46.1393,-29.936,29.936,46.1393,68.7991,50.807)"><path d="M0.044,-0.714l0,0.714l0.174,-0l-0,-0.441l0.002,0l0.124,0.441l0.204,-0l0,-0.714l-0.174,0l0,0.44l-0.002,-0l-0.12,-0.44l-0.208,0Z" style="fill-rule:nonzero;"/></g><g transform="matrix(50.5673,-21.6321,21.6321,50.5673,96.485,33.7689)"><rect x="0.037" y="-0.714" width="0.186" height="0.714" style="fill-rule:nonzero;"/></g><g transform="matrix(53.3569,-13.3433,13.3433,53.3569,109.555,27.5633)"><path d="M-0.011,-0.714l0.151,0.714l0.24,-0l0.154,-0.714l-0.198,0l-0.075,0.538l-0.002,-0l-0.075,-0.538l-0.195,0Z" style="fill-rule:nonzero;"/></g><g transform="matrix(54.9634,-2.00484,2.00484,54.9634,137.389,20.6135)"><path d="M0.044,-0.714l0,0.714l0.432,-0l0,-0.152l-0.246,0l0,-0.142l0.222,0l0,-0.146l-0.222,0l0,-0.122l0.237,0l0,-0.152l-0.423,0Z" style="fill-rule:nonzero;"/></g><g transform="matrix(54.1181,9.80951,-9.80951,54.1181,165.015,19.2513)"><path d="M0.23,-0.412l0,-0.168l0.036,0c0.028,0 0.048,0.006 0.061,0.019c0.012,0.013 0.018,0.034 0.018,0.064c0,0.025 -0.006,0.046 -0.019,0.062c-0.013,0.015 -0.032,0.023 -0.059,0.023l-0.037,0Zm-0.186,-0.302l-0,0.714l0.186,-0l0,-0.286l0.049,0c0.011,0 0.021,0.002 0.028,0.005c0.008,0.003 0.014,0.008 0.019,0.016c0.005,0.007 0.009,0.018 0.011,0.031c0.002,0.013 0.003,0.03 0.003,0.05l-0,0.048c-0,0.007 0,0.017 0,0.029c0.001,0.011 0.002,0.023 0.002,0.036c0.001,0.013 0.003,0.025 0.005,0.038c0.003,0.013 0.006,0.024 0.011,0.033l0.198,0l0,-0.01c-0.006,-0.003 -0.01,-0.007 -0.013,-0.01c-0.003,-0.004 -0.005,-0.008 -0.008,-0.012c-0.002,-0.004 -0.004,-0.01 -0.005,-0.017c-0.001,-0.007 -0.002,-0.015 -0.003,-0.024c-0.001,-0.009 -0.001,-0.019 -0.001,-0.029l0,-0.09c0,-0.048 -0.008,-0.086 -0.025,-0.113c-0.017,-0.027 -0.047,-0.043 -0.092,-0.047l0,-0.002c0.043,-0.007 0.074,-0.025 0.093,-0.054c0.019,-0.029 0.029,-0.068 0.029,-0.116c0,-0.027 -0.004,-0.053 -0.011,-0.076c-0.007,-0.023 -0.018,-0.043 -0.034,-0.061c-0.015,-0.017 -0.035,-0.03 -0.061,-0.039c-0.024,-0.009 -0.055,-0.014 -0.09,-0.014l-0.291,0Z" style="fill-rule:nonzero;"/></g><g transform="matrix(50.6825,21.3608,-21.3608,50.6825,196.148,24.9367)"><path d="M0.322,-0.508l0.174,0c0,-0.077 -0.018,-0.132 -0.054,-0.167c-0.037,-0.035 -0.096,-0.053 -0.177,-0.053c-0.079,0 -0.137,0.019 -0.176,0.057c-0.039,0.038 -0.058,0.093 -0.058,0.166c-0,0.042 0.007,0.076 0.021,0.102c0.015,0.026 0.033,0.047 0.054,0.063c0.022,0.016 0.046,0.029 0.071,0.039c0.025,0.01 0.049,0.02 0.07,0.03c0.022,0.009 0.04,0.021 0.054,0.035c0.015,0.013 0.022,0.032 0.022,0.055c-0,0.019 -0.005,0.036 -0.016,0.049c-0.01,0.013 -0.025,0.02 -0.044,0.02c-0.018,0 -0.033,-0.006 -0.044,-0.019c-0.011,-0.012 -0.017,-0.033 -0.017,-0.064l-0,-0.017l-0.18,0l-0,0.025c-0,0.037 0.005,0.069 0.016,0.094c0.011,0.025 0.026,0.046 0.046,0.062c0.021,0.015 0.046,0.026 0.075,0.033c0.03,0.006 0.064,0.009 0.103,0.009c0.082,0 0.145,-0.017 0.188,-0.051c0.043,-0.035 0.065,-0.09 0.065,-0.166c-0,-0.043 -0.008,-0.078 -0.023,-0.105c-0.015,-0.027 -0.033,-0.049 -0.056,-0.066c-0.023,-0.017 -0.047,-0.03 -0.073,-0.04c-0.026,-0.011 -0.05,-0.021 -0.073,-0.031c-0.023,-0.01 -0.042,-0.022 -0.057,-0.035c-0.015,-0.014 -0.022,-0.033 -0.022,-0.056c-0,-0.016 0.005,-0.03 0.014,-0.043c0.009,-0.013 0.024,-0.02 0.044,-0.02c0.018,0 0.031,0.008 0.04,0.023c0.009,0.015 0.013,0.033 0.013,0.054l-0,0.017Z" style="fill-rule:nonzero;"/></g><g transform="matrix(44.7696,31.9481,-31.9481,44.7696,223.533,36.4322)"><path d="M0.277,-0.568l-0.051,0.303l0.104,0l-0.051,-0.303l-0.002,0Zm0.118,-0.146l0.174,0.714l-0.198,0l-0.019,-0.125l-0.148,0l-0.019,0.125l-0.195,0l0.171,-0.714l0.234,0Z" style="fill-rule:nonzero;"/></g><g transform="matrix(36.2916,41.327,-41.327,36.2916,248.629,54.1813)"><path d="M0.23,-0.412l0,-0.168l0.036,0c0.028,0 0.048,0.006 0.061,0.019c0.012,0.013 0.018,0.034 0.018,0.064c0,0.025 -0.006,0.046 -0.019,0.062c-0.013,0.015 -0.032,0.023 -0.059,0.023l-0.037,0Zm-0.186,-0.302l-0,0.714l0.186,-0l0,-0.286l0.049,0c0.011,0 0.021,0.002 0.028,0.005c0.008,0.003 0.014,0.008 0.019,0.016c0.005,0.007 0.009,0.018 0.011,0.031c0.002,0.013 0.003,0.03 0.003,0.05l-0,0.048c-0,0.007 0,0.017 0,0.029c0.001,0.011 0.002,0.023 0.002,0.036c0.001,0.013 0.003,0.025 0.005,0.038c0.003,0.013 0.006,0.024 0.011,0.033l0.198,0l0,-0.01c-0.006,-0.003 -0.01,-0.007 -0.013,-0.01c-0.003,-0.004 -0.005,-0.008 -0.008,-0.012c-0.002,-0.004 -0.004,-0.01 -0.005,-0.017c-0.001,-0.007 -0.002,-0.015 -0.003,-0.024c-0.001,-0.009 -0.001,-0.019 -0.001,-0.029l0,-0.09c0,-0.048 -0.008,-0.086 -0.025,-0.113c-0.017,-0.027 -0.047,-0.043 -0.092,-0.047l0,-0.002c0.043,-0.007 0.074,-0.025 0.093,-0.054c0.019,-0.029 0.029,-0.068 0.029,-0.116c0,-0.027 -0.004,-0.053 -0.011,-0.076c-0.007,-0.023 -0.018,-0.043 -0.034,-0.061c-0.015,-0.017 -0.035,-0.03 -0.061,-0.039c-0.024,-0.009 -0.055,-0.014 -0.09,-0.014l-0.291,0Z" style="fill-rule:nonzero;"/></g><g transform="matrix(27.1378,47.8387,-47.8387,27.1378,268.671,76.9078)"><path d="M0.167,-0.281l0,0.281l0.186,-0l0,-0.281l0.182,-0.433l-0.204,0l-0.07,0.249l-0.002,-0l-0.07,-0.249l-0.201,0l0.179,0.433Z" style="fill-rule:nonzero;"/></g></g><circle cx="200" cy="200" r="121.247" style="fill:none;stroke:currentColor;stroke-width:6.5px;stroke-linecap:round;stroke-miterlimit:1.5;"/><g transform="matrix(1.03126,0,0,1.02529,-79.4762,-115.014)"><g transform="matrix(13.3183,-14.2525,14.2525,13.3183,377.085,419.665)"><path d="M0.5,-0.843l-0.137,0.37l-0.351,-0l0.295,0.221l-0.142,0.373l0.335,-0.251l0.335,0.251l-0.142,-0.373l0.295,-0.221l-0.352,-0l-0.136,-0.37Z" style="fill-rule:nonzero;stroke:currentColor;stroke-width:0.05px;"/></g><g transform="matrix(10.4073,-16.4985,16.4985,10.4073,396.396,397.65)"><path d="M0.5,-0.843l-0.137,0.37l-0.351,-0l0.295,0.221l-0.142,0.373l0.335,-0.251l0.335,0.251l-0.142,-0.373l0.295,-0.221l-0.352,-0l-0.136,-0.37Z" style="fill-rule:nonzero;stroke:currentColor;stroke-width:0.05px;"/></g><g transform="matrix(7.10114,-18.1682,18.1682,7.10114,411.22,372.414)"><path d="M0.5,-0.843l-0.137,0.37l-0.351,-0l0.295,0.221l-0.142,0.373l0.335,-0.251l0.335,0.251l-0.142,-0.373l0.295,-0.221l-0.352,-0l-0.136,-0.37Z" style="fill-rule:nonzero;stroke:currentColor;stroke-width:0.05px;"/></g><g transform="matrix(3.52054,-19.1864,19.1864,3.52054,421.002,344.817)"><path d="M0.5,-0.843l-0.137,0.37l-0.351,-0l0.295,0.221l-0.142,0.373l0.335,-0.251l0.335,0.251l-0.142,-0.373l0.295,-0.221l-0.352,-0l-0.136,-0.37Z" style="fill-rule:nonzero;stroke:currentColor;stroke-width:0.05px;"/></g><g transform="matrix(-0.139185,-19.5062,19.5062,-0.139185,425.363,315.876)"><path d="M0.5,-0.843l-0.137,0.37l-0.351,-0l0.295,0.221l-0.142,0.373l0.335,-0.251l0.335,0.251l-0.142,-0.373l0.295,-0.221l-0.352,-0l-0.136,-0.37Z" style="fill-rule:nonzero;stroke:currentColor;stroke-width:0.05px;"/></g><g transform="matrix(-3.80234,-19.1325,19.1325,-3.80234,424.24,286.615)"><path d="M0.5,-0.843l-0.137,0.37l-0.351,-0l0.295,0.221l-0.142,0.373l0.335,-0.251l0.335,0.251l-0.142,-0.373l0.295,-0.221l-0.352,-0l-0.136,-0.37Z" style="fill-rule:nonzero;stroke:currentColor;stroke-width:0.05px;"/></g></g><path d="M154.236,287.882l-0,-149.407l-19.66,18.552l0,-26.715l19.66,-18.552l19.659,-0l0,176.122l-19.659,0Z" style="fill-rule:nonzero;stroke:currentColor;stroke-width:1px;"/><path d="M196.831,287.882l0,-23.747l35.464,-85.834c1.799,-4.288 2.827,-8.04 3.084,-11.256c0.257,-3.215 0.385,-7.214 0.385,-11.997c0,-2.143 -0.032,-4.411 -0.096,-6.802c-0.064,-2.391 -0.418,-4.494 -1.06,-6.308c-0.643,-1.814 -1.606,-3.339 -2.891,-4.576c-1.285,-1.237 -3.148,-1.855 -5.59,-1.855c-2.955,-0 -5.3,1.072 -7.035,3.215c-1.734,2.144 -2.602,5.278 -2.602,9.4l0,14.347l-19.659,0l0,-13.852c0,-5.277 0.771,-10.224 2.313,-14.842c1.542,-4.617 3.662,-8.658 6.36,-12.121c2.57,-3.463 5.654,-6.225 9.252,-8.286c3.598,-2.062 7.452,-3.092 11.564,-3.092c5.14,-0 9.541,1.195 13.203,3.586c3.662,2.392 6.714,5.649 9.155,9.771c2.313,4.123 4.015,8.823 5.107,14.1c1.093,5.277 1.639,10.884 1.639,16.821c-0,4.287 -0.064,7.874 -0.193,10.76c-0.128,2.886 -0.385,5.648 -0.771,8.287c-0.385,2.638 -1.028,5.277 -1.927,7.915c-0.9,2.639 -2.12,5.854 -3.662,9.647l-28.911,71.488l35.464,0l-0,25.231l-58.593,0Z" style="fill-rule:nonzero;stroke:currentColor;stroke-width:1px;"/><g transform="matrix(-1.03126,0,0,1.02529,479.476,-116.856)"><g transform="matrix(13.8072,-13.7794,13.7794,13.8072,372.751,425.178)"><path d="M0.5,-0.843l-0.137,0.37l-0.351,-0l0.295,0.221l-0.142,0.373l0.335,-0.251l0.335,0.251l-0.142,-0.373l0.295,-0.221l-0.352,-0l-0.136,-0.37Z" style="fill-rule:nonzero;stroke:currentColor;stroke-width:0.05px;"/></g><g transform="matrix(10.994,-16.1135,16.1135,10.994,392.814,403.86)"><path d="M0.5,-0.843l-0.137,0.37l-0.351,-0l0.295,0.221l-0.142,0.373l0.335,-0.251l0.335,0.251l-0.142,-0.373l0.295,-0.221l-0.352,-0l-0.136,-0.37Z" style="fill-rule:nonzero;stroke:currentColor;stroke-width:0.05px;"/></g><g transform="matrix(7.77797,-17.8889,17.8889,7.77797,408.556,379.151)"><path d="M0.5,-0.843l-0.137,0.37l-0.351,-0l0.295,0.221l-0.142,0.373l0.335,-0.251l0.335,0.251l-0.142,-0.373l0.295,-0.221l-0.352,-0l-0.136,-0.37Z" style="fill-rule:nonzero;stroke:currentColor;stroke-width:0.05px;"/></g><g transform="matrix(4.27532,-19.0324,19.0324,4.27532,419.373,351.955)"><path d="M0.5,-0.843l-0.137,0.37l-0.351,-0l0.295,0.221l-0.142,0.373l0.335,-0.251l0.335,0.251l-0.142,-0.373l0.295,-0.221l-0.352,-0l-0.136,-0.37Z" style="fill-rule:nonzero;stroke:currentColor;stroke-width:0.05px;"/></g><g transform="matrix(0.653194,-19.4958,19.4958,0.653194,424.882,323.201)"><path d="M0.5,-0.843l-0.137,0.37l-0.351,-0l0.295,0.221l-0.142,0.373l0.335,-0.251l0.335,0.251l-0.142,-0.373l0.295,-0.221l-0.352,-0l-0.136,-0.37Z" style="fill-rule:nonzero;stroke:currentColor;stroke-width:0.05px;"/></g><g transform="matrix(-2.96329,-19.2803,19.2803,-2.96329,424.963,293.921)"><path d="M0.5,-0.843l-0.137,0.37l-0.351,-0l0.295,0.221l-0.142,0.373l0.335,-0.251l0.335,0.251l-0.142,-0.373l0.295,-0.221l-0.352,-0l-0.136,-0.37Z" style="fill-rule:nonzero;stroke:currentColor;stroke-width:0.05px;"/></g></g></svg>
