<svg width="100%" height="100%" viewBox="0 0 144 27" version="1.1" xmlns="http://www.w3.org/2000/svg" xmlns:xlink="http://www.w3.org/1999/xlink" xml:space="preserve" style="fill-rule:evenodd;clip-rule:evenodd;stroke-linejoin:round;stroke-miterlimit:2;" fill="currentColor">
    <g transform="matrix(1,0,0,1,-88,-99)">
        <g transform="matrix(1,0,0,1,-0.764281,1.42109e-14)">
            <rect x="89.166" y="99.521" width="3.954" height="25.632"/>
        </g>
        <g transform="matrix(1,0,0,1,-0.764281,1.42109e-14)">
            <path d="M149.951,99.521L149.951,119.393C149.951,120.233 149.789,121.007 149.466,121.715C149.143,122.423 148.684,123.053 148.09,123.605C147.496,124.157 146.811,124.589 146.035,124.901C145.26,125.213 144.433,125.369 143.554,125.369C142.676,125.369 141.855,125.213 141.093,124.901C140.33,124.589 139.652,124.157 139.058,123.605C138.463,123.053 137.998,122.423 137.662,121.715C137.326,121.007 137.158,120.233 137.158,119.393L137.158,99.521L141.112,99.521L141.112,119.033C141.112,119.945 141.345,120.617 141.81,121.049C142.275,121.481 142.857,121.697 143.554,121.697C144.252,121.697 144.834,121.481 145.299,121.049C145.764,120.617 145.997,119.945 145.997,119.033L145.997,99.521L149.951,99.521Z" style="fill-rule:nonzero;"/>
        </g>
        <g transform="matrix(1,0,0,1,0.224682,0)">
            <path d="M155.3,125.153L155.3,102.977L150.726,102.977L150.726,99.521L163.829,99.521L163.829,102.977L159.255,102.977L159.255,125.153L155.3,125.153Z" style="fill-rule:nonzero;"/>
        </g>
        <g transform="matrix(-1,0,0,1,337.862,0)">
            <path d="M164.643,125.153L160.689,125.153L166.853,99.521L170.148,99.521L176.312,125.153L166.808,125.153L167.422,121.515L171.663,121.522L168.472,106.905L165.806,119.645L164.643,125.153Z"/>
        </g>
        <g transform="matrix(1,0,0,1,0.891616,0)">
            <path d="M177.281,125.153L177.281,99.521L183.057,99.521C184.323,99.521 185.402,99.701 186.294,100.061C187.185,100.421 187.916,100.901 188.484,101.501C189.053,102.101 189.46,102.791 189.705,103.571C189.951,104.351 190.073,105.161 190.073,106.001L190.073,106.937C190.073,107.633 190.015,108.221 189.899,108.701C189.783,109.181 189.608,109.601 189.376,109.961C188.936,110.633 188.264,111.209 187.36,111.689C188.29,112.097 188.975,112.697 189.414,113.489C189.854,114.281 190.073,115.361 190.073,116.729L190.073,118.169C190.073,120.425 189.486,122.153 188.31,123.353C187.134,124.553 185.254,125.153 182.669,125.153L177.281,125.153ZM181.235,113.273L181.235,121.481L182.941,121.481C183.742,121.481 184.368,121.373 184.821,121.157C185.273,120.941 185.615,120.641 185.848,120.257C186.081,119.873 186.223,119.417 186.274,118.889C186.326,118.361 186.352,117.785 186.352,117.161C186.352,116.513 186.313,115.949 186.236,115.469C186.158,114.989 186.003,114.581 185.77,114.245C185.512,113.909 185.163,113.663 184.724,113.507C184.284,113.351 183.703,113.273 182.979,113.273L181.235,113.273ZM181.235,102.977L181.235,110.033L183.018,110.033C184.336,110.033 185.221,109.727 185.674,109.115C186.126,108.503 186.352,107.609 186.352,106.433C186.352,105.281 186.1,104.417 185.596,103.841C185.092,103.265 184.181,102.977 182.863,102.977L181.235,102.977Z"/>
        </g>
        <path d="M192.826,125.153L192.826,99.521L196.78,99.521L196.78,121.481L204.611,121.481L204.611,125.153L192.826,125.153Z" style="fill-rule:nonzero;"/>
        <path d="M215.882,113.957L210.154,113.957L210.154,121.481L217.985,121.481L217.985,125.153L206.2,125.153L206.2,99.521L217.985,99.521L217.985,102.977L210.154,102.977L210.154,110.501L216.461,110.501L215.882,113.957Z"/>
        <g transform="matrix(0.946906,0,0,0.991713,11.6169,0.822972)">
            <path d="M232.367,106.901L228.413,106.901L228.413,106.073C228.413,105.233 228.2,104.507 227.773,103.895C227.347,103.283 226.63,102.977 225.622,102.977C225.079,102.977 224.64,103.073 224.304,103.265C223.968,103.457 223.696,103.697 223.49,103.985C223.283,104.297 223.141,104.651 223.063,105.047C222.986,105.443 222.947,105.857 222.947,106.289C222.947,106.793 222.966,107.213 223.005,107.549C223.044,107.885 223.141,108.185 223.296,108.449C223.451,108.713 223.677,108.941 223.974,109.133C224.271,109.325 224.679,109.517 225.195,109.709L228.219,110.825C229.098,111.137 229.809,111.503 230.351,111.923C230.894,112.343 231.32,112.829 231.631,113.381C231.915,113.957 232.109,114.611 232.212,115.343C232.315,116.075 232.367,116.909 232.367,117.845C232.367,118.925 232.251,119.927 232.018,120.851C231.786,121.775 231.411,122.561 230.894,123.209C230.351,123.881 229.641,124.409 228.762,124.793C227.883,125.177 226.811,125.369 225.544,125.369C224.588,125.369 223.696,125.213 222.869,124.901C222.042,124.589 221.332,124.157 220.737,123.605C220.143,123.053 219.671,122.411 219.322,121.679C218.973,120.947 218.799,120.149 218.799,119.285L218.799,117.917L222.753,117.917L222.753,119.069C222.753,119.741 222.966,120.347 223.393,120.887C223.819,121.427 224.536,121.697 225.544,121.697C226.216,121.697 226.74,121.607 227.114,121.427C227.489,121.247 227.78,120.989 227.987,120.653C228.193,120.317 228.316,119.915 228.355,119.447C228.394,118.979 228.413,118.457 228.413,117.881C228.413,117.209 228.387,116.657 228.335,116.225C228.284,115.793 228.18,115.445 228.025,115.181C227.844,114.917 227.605,114.701 227.308,114.533C227.011,114.365 226.617,114.185 226.126,113.993L223.296,112.913C221.59,112.265 220.447,111.407 219.865,110.339C219.284,109.271 218.993,107.933 218.993,106.325C218.993,105.365 219.135,104.453 219.419,103.589C219.704,102.725 220.13,101.981 220.699,101.357C221.241,100.733 221.933,100.235 222.773,99.863C223.612,99.491 224.614,99.305 225.777,99.305C226.759,99.305 227.657,99.473 228.471,99.809C229.285,100.145 229.989,100.589 230.584,101.141C231.773,102.293 232.367,103.613 232.367,105.101L232.367,106.901Z" style="fill-rule:nonzero;"/>
        </g>
        <g transform="matrix(1,0,0,1.06274,-0.764281,-6.24423)">
            <path d="M95.989,123.64L95.989,99.521L99.788,99.521L104.866,113.093L104.944,113.093L109.983,99.521L113.821,99.521L113.821,123.64L109.867,123.64L109.867,110.622L104.936,123.629L99.943,110.686L99.943,123.64L95.989,123.64Z"/>
        </g>
        <g transform="matrix(1,0,0,1.06274,19.8204,-6.24423)">
            <path d="M95.989,123.64L95.989,99.521L99.788,99.521L104.866,113.093L104.944,113.093L109.983,99.521L113.821,99.521L113.821,123.64L109.867,123.64L109.867,110.622L104.936,123.629L99.943,110.686L99.943,123.64L95.989,123.64Z"/>
        </g>
    </g>
</svg>
