<svg width="100%" height="100%" viewBox="0 0 90 131" version="1.1" xmlns="http://www.w3.org/2000/svg" xmlns:xlink="http://www.w3.org/1999/xlink" xml:space="preserve" style="fill-rule:evenodd;clip-rule:evenodd;stroke-linejoin:round;stroke-miterlimit:2;"><g id="Layer1"><path d="M48.896,53.725c-0.168,-0.056 -0.328,-0.148 -0.465,-0.278c-0.502,-0.474 -0.524,-1.266 -0.05,-1.767l0.421,-0.326l0.402,-0.15l0.382,-0.032l0.367,0.063l0.359,0.163l0.368,0.305c0.162,0.177 0.331,0.434 0.47,0.774c0.374,0.909 0.608,2.695 0.294,4.583c-0.477,2.875 -2.166,5.932 -6.104,6.591c-0.68,0.114 -1.325,-0.346 -1.439,-1.027c-0.113,-0.68 0.347,-1.325 1.027,-1.439c3.38,-0.565 4.194,-3.824 4.166,-6.052c-0.007,-0.488 -0.115,-1.047 -0.198,-1.408Z"/><path d="M49.998,41.782c-0.283,0.081 -0.596,0.062 -0.883,-0.075c-0.622,-0.298 -0.885,-1.046 -0.586,-1.668l0.206,-0.325l0.332,-0.317l0.327,-0.188l0.414,-0.12l0.382,-0.016l0.377,0.067l0.658,0.323c0.43,0.305 1.041,0.968 1.745,2.397c3.789,7.689 -2.125,11.894 -4.06,12.266c-0.677,0.13 -1.333,-0.314 -1.463,-0.992c-0.13,-0.677 0.314,-1.333 0.992,-1.463c0.35,-0.067 0.877,-0.385 1.412,-0.87c1.475,-1.338 2.766,-4.002 0.877,-7.836c-0.247,-0.5 -0.536,-0.923 -0.73,-1.183Z"/><path d="M52.731,30.488c1.623,0.949 2.242,2.485 2.202,4.163c-0.037,1.534 -0.674,3.202 -1.55,4.509c-0.749,1.119 -1.678,1.963 -2.509,2.333c-0.883,0.392 -1.715,0.339 -2.397,-0.111c-0.576,-0.379 -0.736,-1.155 -0.356,-1.731c0.359,-0.546 1.075,-0.718 1.639,-0.412c0.063,-0.023 0.194,-0.076 0.278,-0.128c0.44,-0.275 0.88,-0.763 1.268,-1.342c0.62,-0.924 1.102,-2.092 1.128,-3.177c0.019,-0.832 -0.273,-1.609 -1.142,-2.041c-0.191,-0.095 -0.379,-0.098 -0.517,-0.115c-0.195,-0.024 -0.361,-0.056 -0.491,-0.097l-0.439,-0.217l-0.333,-0.335l-0.187,-0.369l-0.07,-0.367l0.053,-0.516c0.036,-0.137 0.099,-0.309 0.205,-0.518c0.153,-0.302 0.53,-0.673 1.066,-1.051c0.513,-0.361 1.359,-0.785 1.448,-1.704c0.044,-0.45 -0.103,-0.986 -0.465,-1.66c-0.473,-0.878 -1.284,-1.913 -2.545,-3.162c-0.557,-0.551 -1.465,-1.017 -2.074,-1.292c-0.659,-0.214 -0.974,-0.361 -1.051,-0.407l-0.327,-0.276l-0.201,-0.331l-0.095,-0.462l0.103,-0.514l0.282,-0.405l0.273,-0.199l0.292,-0.113l0.533,-0.019c0.294,0.05 2.598,0.83 4.024,2.242c3.183,3.151 3.884,5.361 3.74,6.84c-0.131,1.337 -0.9,2.269 -1.736,2.944c-0.016,0.013 -0.032,0.027 -0.049,0.04Z"/><path d="M45.65,63.782c-0.416,-0.034 -0.806,-0.274 -1.011,-0.672l-0.113,-0.276l-0.057,-0.309l0.08,-0.548l0.295,-0.458l0.435,-0.286l0.448,-0.092l0.392,0.045c0.203,0.053 0.616,0.245 1.101,0.632c0.834,0.664 2.111,1.993 2.899,3.596c0.576,1.169 0.89,2.477 0.689,3.788c-0.244,1.587 -1.246,3.275 -3.73,4.674c0.223,0.207 0.401,0.434 0.519,0.67c0.752,1.495 0.836,2.944 0.734,3.603l-0.118,0.458l-0.252,0.428l-0.273,0.245l-0.286,0.148l-0.3,0.071l-0.316,-0.003l-0.318,-0.083l-0.245,-0.129l-0.284,-0.252l-0.205,-0.309c-0.223,-0.434 -0.167,-0.938 0.102,-1.307c-0.045,-0.405 -0.16,-1.102 -0.449,-1.701c-0.05,-0.034 -0.265,-0.178 -0.404,-0.242c-0.528,-0.24 -1.121,-0.364 -1.228,-0.387c-0.548,-0.117 -0.951,-0.586 -0.986,-1.146c-0.034,-0.56 0.309,-1.074 0.839,-1.258c2.8,-0.969 4.186,-2.118 4.619,-3.408c0.285,-0.848 0.11,-1.708 -0.225,-2.485c-0.394,-0.913 -1.02,-1.724 -1.592,-2.323c-0.245,-0.257 -0.545,-0.511 -0.76,-0.684Zm1.34,-1.399c-0.012,-0.127 -0.051,-0.267 -0.13,-0.42c0.07,0.135 0.112,0.277 0.13,0.42Z"/><path d="M46.748,75.215c0.653,-0.494 4.61,-3.244 9.649,-1.539c2.335,0.79 3.251,1.653 3.783,2.281c0.129,0.152 0.283,0.349 0.374,0.467c0.614,0.079 1.089,0.604 1.089,1.24c-0,0.69 -0.56,1.25 -1.25,1.25l-0.512,-0.054l-0.504,-0.183l-0.333,-0.22c-0.118,-0.096 -0.23,-0.207 -0.339,-0.337c-0.37,-0.436 -0.755,-1.279 -3.109,-2.076c-3.482,-1.178 -5.855,0.222 -7.019,0.978c-0.414,0.27 -0.728,0.472 -0.924,0.558l-0.508,0.133l-0.403,-0.026l-0.355,-0.133l-0.325,-0.251c-0.474,-0.501 -0.451,-1.293 0.05,-1.767c0.183,-0.173 0.405,-0.279 0.636,-0.321Zm1.033,0.278c0.034,0.029 0.067,0.06 0.098,0.093c-0.031,-0.033 -0.064,-0.064 -0.098,-0.093Z"/><path d="M77.233,84.754c0.105,0.059 0.203,0.135 0.291,0.228c0.474,0.501 0.452,1.293 -0.05,1.767c-0.13,0.123 -0.242,0.216 -0.337,0.285l-0.322,0.19l-0.335,0.108l-0.314,0.025l-0.41,-0.078l-0.372,-0.205l-0.29,-0.307l-0.187,-0.379c-0.071,-0.211 -0.112,-0.612 -0.147,-1.169c-0.091,-1.433 -0.493,-4.405 -4.705,-7.256c-3.066,-2.075 -6.013,-1.278 -7.668,-0.277c-0.184,0.111 -0.364,0.243 -0.523,0.371c0.109,0.605 -0.244,1.213 -0.844,1.408l-0.499,0.112l-0.431,-0.006l-0.36,-0.099l-0.267,-0.147l-0.389,-0.42l-0.179,-0.503l0.009,-0.481l0.158,-0.47c0.224,-0.452 0.918,-1.231 2.031,-1.904c2.237,-1.353 6.22,-2.458 10.363,0.346c5,3.383 5.628,6.963 5.777,8.861Z"/><path d="M76.945,87.802c-0.614,0.315 -1.368,0.072 -1.683,-0.542c-0.315,-0.614 -0.072,-1.368 0.542,-1.683c1.127,-0.578 2.143,-0.321 3.071,0.504c0.826,0.736 1.58,2.094 2.322,3.21c4.481,6.749 -0.315,12.242 -0.673,12.58c-0.501,0.474 -1.293,0.452 -1.767,-0.049c-0.474,-0.501 -0.452,-1.293 0.049,-1.767c0.267,-0.252 3.647,-4.353 0.308,-9.381c-0.539,-0.812 -1.064,-1.787 -1.644,-2.459c-0.118,-0.137 -0.237,-0.259 -0.362,-0.351c-0.053,-0.04 -0.1,-0.095 -0.163,-0.062Z"/><path d="M87.384,92.701c0.925,0.772 1.607,2.172 1.591,4.309c-0.006,0.812 -0.137,1.434 -0.428,1.979c-0.398,0.747 -1.132,1.392 -2.592,2.116c-1.381,0.686 -3.488,0.89 -4.783,0.615c-0.459,-0.097 -0.837,-0.255 -1.112,-0.439l-0.364,-0.31l-0.31,-0.462c-0.289,-0.627 -0.015,-1.37 0.612,-1.659c0.537,-0.247 1.161,-0.081 1.509,0.368c0.112,0.03 0.357,0.091 0.536,0.108c0.857,0.078 2.009,-0.067 2.801,-0.46c0.799,-0.397 1.279,-0.645 1.497,-1.053c0.12,-0.224 0.132,-0.488 0.134,-0.822c0.013,-1.736 -0.51,-2.699 -1.553,-2.59c-0.634,0.066 -1.217,-0.356 -1.351,-0.979c-0.135,-0.624 0.221,-1.249 0.826,-1.45c0.261,-0.087 0.548,-0.188 0.649,-0.223c0.041,-0.068 0.136,-0.229 0.212,-0.379c1.124,-2.205 2.692,-3.844 0.777,-6.758c-2.572,-3.912 -5.757,-3.937 -7.676,-2.687c-0.703,0.458 -1.236,1.056 -1.388,1.658c-0.168,0.669 -0.848,1.076 -1.517,0.907c-0.669,-0.168 -1.075,-0.848 -0.907,-1.517c0.262,-1.04 1.043,-2.152 2.21,-2.981c1.629,-1.159 3.994,-1.781 6.456,-0.921c1.655,0.579 3.381,1.84 4.911,4.168c2.615,3.979 0.896,6.256 -0.638,9.267c-0.035,0.068 -0.069,0.133 -0.102,0.195Z"/><path d="M71.45,117.502c0.339,0.049 0.8,0.094 1.181,0.053c0.674,-0.072 1.413,-0.288 1.913,-0.859c0.44,-0.502 0.657,-1.262 0.583,-2.346c-0.018,-0.259 -0.196,-0.466 -0.346,-0.634c-0.236,-0.262 -0.485,-0.433 -0.556,-0.484l-0.244,-0.22l-0.249,-0.454l-0.049,-0.469l0.129,-0.454l0.252,-0.341l0.294,-0.21l0.439,-0.131l0.348,0.012l0.286,0.086c0.028,0.012 0.182,0.095 0.519,0.263c0.477,0.237 1.018,0.186 1.555,0.003c0.709,-0.24 1.406,-0.714 2.015,-1.296c0.75,-0.716 1.369,-1.601 1.681,-2.477c0.165,-0.464 0.249,-0.92 0.165,-1.329c-0.704,-3.456 -1.438,-3.799 -1.76,-3.965l-0.424,-0.304l-0.296,-0.447l-0.105,-0.536c-0,-0.69 0.56,-1.25 1.25,-1.25c0.366,0 0.695,0.158 0.924,0.409c0.537,0.299 2.021,1.475 2.861,5.593c0.197,0.966 0.024,2.078 -0.462,3.174c-0.642,1.448 -1.831,2.878 -3.197,3.837c-0.822,0.577 -1.705,0.975 -2.578,1.145c0.021,0.102 0.035,0.205 0.042,0.309c0.133,1.942 -0.408,3.263 -1.196,4.163c-0.933,1.066 -2.268,1.562 -3.527,1.698c-1.236,0.132 -2.378,-0.091 -2.933,-0.335l-0.454,-0.266l-0.362,-0.402l-0.188,-0.511l0.006,-0.441l0.123,-0.365l0.281,-0.378l0.274,-0.206l0.344,-0.156c0.56,-0.19 1.161,0.04 1.461,0.521Z"/><path d="M57.198,112.777c0.077,-0.664 0.668,-1.154 1.34,-1.101c0.688,0.054 1.202,0.656 1.148,1.344l-0.096,0.5c-0.064,0.205 -0.154,0.392 -0.264,0.572c-0.131,0.216 -0.361,0.394 -0.45,0.771c-0.097,0.408 -0.022,1.003 0.301,2.017c0.055,0.173 0.107,0.3 0.199,0.368c0.145,0.108 0.327,0.068 0.475,0.066c0.397,-0.008 0.749,-0.019 0.987,0.032l0.469,0.175l0.355,0.28l0.186,0.249l0.126,0.274l0.082,0.508c-0,0.215 0.212,0.414 0.389,0.626c0.38,0.458 1.026,0.958 1.106,1.02c2.294,1.127 4.201,0.393 5.276,-0.577c0.136,-0.122 0.266,-0.275 0.38,-0.426c-0.167,-0.144 -0.298,-0.334 -0.371,-0.56c-0.213,-0.656 0.148,-1.361 0.804,-1.574c0.271,-0.088 0.507,-0.126 0.707,-0.133l0.547,0.056l0.486,0.213l0.41,0.385l0.239,0.465l0.083,0.441l-0.023,0.46c-0.028,0.181 -0.082,0.382 -0.165,0.594c-0.738,1.875 -4.516,5.38 -9.531,2.872c-0.205,-0.102 -1.158,-0.78 -1.871,-1.638c-0.328,-0.395 -0.594,-0.828 -0.763,-1.258c-0.619,-0.017 -1.354,-0.116 -1.968,-0.616c-0.391,-0.319 -0.757,-0.794 -0.996,-1.543c-0.843,-2.647 -0.353,-3.683 0.081,-4.378c0.102,-0.163 0.279,-0.421 0.322,-0.484Z"/><path d="M52.971,117.895c0.074,0.261 0.459,1.453 1.521,2.156c0.105,0.069 0.273,0.103 0.471,0.146c0.512,0.113 1.171,0.176 1.874,0.204c1.326,0.054 3.222,-0.152 4.102,-0.26c0.346,-0.508 1.024,-0.696 1.59,-0.415l0.366,0.237l0.287,0.323l0.139,0.278l0.078,0.353l-0.038,0.443l-0.241,0.493l-0.396,0.36l-0.459,0.219c-1.037,0.371 -4.242,0.619 -6.545,0.4c-1.166,-0.111 -2.12,-0.374 -2.607,-0.697c-2.52,-1.666 -2.68,-4.133 -2.647,-4.448l0.068,-0.306l0.172,-0.325l0.253,-0.258l0.303,-0.17l0.509,-0.085l0.46,0.109l0.366,0.25l0.258,0.365c0.096,0.203 0.132,0.419 0.116,0.628Zm-1.935,0.948c-0.185,-0.122 -0.34,-0.295 -0.442,-0.51c0.127,0.269 0.297,0.419 0.442,0.51Z"/><path d="M37.174,118.298c0.442,-0.04 1.017,-0.137 1.568,-0.344c0.464,-0.175 0.925,-0.422 1.202,-0.843c0.852,-1.291 0.967,-2.432 1.179,-2.893l0.186,-0.326l0.226,-0.256l0.293,-0.208l0.38,-0.141l0.443,-0.026l0.363,0.08c0.227,0.078 0.545,0.258 0.933,0.644c1.276,1.27 1.923,1.976 2.827,2.26c0.942,0.297 2.109,0.156 4.34,-0.06c3.768,-0.365 5.084,-2.465 5.798,-3.444c0.371,-0.51 0.72,-0.82 0.992,-0.949c0.623,-0.295 1.37,-0.029 1.665,0.594c0.271,0.571 0.07,1.245 -0.444,1.581c-0.145,0.249 -2.519,4.198 -7.77,4.706c-2.741,0.265 -4.174,0.321 -5.332,-0.043c-0.992,-0.312 -1.815,-0.924 -3.031,-2.082c-0.22,0.589 -0.537,1.297 -0.961,1.94c-0.927,1.405 -2.754,2.042 -4.153,2.242c-1.075,0.153 -1.91,0.019 -2.022,-0.027l-0.315,-0.184l-0.224,-0.232l-0.192,-0.377l-0.056,-0.346l0.053,-0.389l0.138,-0.304l0.186,-0.229l0.22,-0.173l0.459,-0.174c0.095,-0.018 0.323,-0.043 0.715,-0.043c0.116,0 0.228,0.016 0.334,0.046Z"/><path d="M36.24,119.798c-0.056,-0.228 -0.048,-0.475 0.036,-0.712c0.23,-0.651 0.945,-0.992 1.595,-0.762l0.357,0.172l0.347,0.296l0.259,0.414l0.114,0.449l-0.006,0.386l-0.124,0.461c-0.098,0.245 -0.269,0.526 -0.519,0.814c-0.676,0.778 -2.056,1.708 -3.503,2.088c-1.1,0.29 -2.226,0.26 -3.164,-0.221c-0.283,-0.146 -1.14,-0.311 -2.062,-0.753c-0.637,-0.306 -1.294,-0.719 -1.874,-1.286c-0.469,0.547 -0.998,0.901 -1.608,1.077c-0.684,0.197 -1.51,0.183 -2.546,-0.152c-1.182,-0.383 -2.735,-1.225 -4.835,-2.614c-0.567,-0.376 -1.056,-0.983 -1.436,-1.656c-0.416,-0.733 -0.704,-1.537 -0.891,-1.978c-0.071,-0.08 -0.132,-0.17 -0.182,-0.27c-0.306,-0.618 -0.054,-1.369 0.564,-1.676l0.464,-0.128l0.449,0.043l0.403,0.193l0.343,0.354c0.141,0.206 0.397,0.926 0.761,1.712c0.228,0.491 0.493,1.049 0.904,1.321c1.795,1.187 3.123,1.946 4.15,2.295c0.601,0.205 1.022,0.291 1.354,0.059c0.366,-0.254 0.602,-0.733 0.871,-1.352c0.198,-0.453 0.645,-0.748 1.14,-0.75c0.495,-0.003 0.945,0.287 1.147,0.739c0.517,1.156 1.55,1.695 2.368,2.016c0.765,0.299 1.409,0.454 1.657,0.581c0.642,0.33 1.463,0.071 2.171,-0.258c0.477,-0.221 0.993,-0.638 1.296,-0.902Zm-19.149,-3.574c0.275,0.06 0.536,0.013 0.783,-0.109c-0.252,0.125 -0.526,0.157 -0.783,0.109Z"/><path d="M28.972,126.687c0.078,0.106 0.503,0.672 0.954,1.032c0.473,0.379 1.082,0.755 1.756,0.582c0.496,-0.127 0.975,-0.534 1.475,-1.26c0.605,-0.881 1.179,-2.168 1.707,-3.983c-0.079,-0.107 -0.143,-0.228 -0.186,-0.361c-0.212,-0.657 0.149,-1.362 0.805,-1.574c0.444,-0.143 0.742,-0.163 0.926,-0.153l0.359,0.064l0.295,0.13l0.293,0.233l0.227,0.322l0.101,0.273l0.041,0.354l-0.086,0.475c-0.044,0.126 -0.163,0.334 -0.242,0.466c-1.433,5.207 -3.448,7.014 -5.093,7.436c-1.485,0.381 -2.896,-0.217 -3.939,-1.051c-1.02,-0.814 -1.643,-1.836 -1.734,-2.103c-1.359,-3.998 -0.556,-5.975 -0.556,-6.965c-0,-0.69 0.56,-1.25 1.25,-1.25c0.689,-0 1.25,0.56 1.25,1.25c-0,0.868 -0.767,2.602 0.397,6.083Zm6.282,-4.658l0.058,-0.113c-0.023,0.037 -0.043,0.075 -0.058,0.113Z"/><path d="M12.658,120.532c0.383,3.302 1.017,5.396 1.799,6.663c0.455,0.737 0.922,1.132 1.42,1.241c0.462,0.101 0.908,-0.046 1.288,-0.237c0.526,-0.265 1.073,-0.819 1.144,-0.891c1.99,-3.9 1.476,-5.154 1.318,-5.409l-0.19,-0.446l-0.028,-0.328l0.07,-0.358l0.141,-0.282l0.327,-0.331l0.354,-0.171l0.432,-0.051l0.551,0.157c0.356,0.174 0.593,0.496 0.671,0.856c0.387,0.821 0.912,2.953 -1.446,7.551c-0.172,0.336 -1.013,1.328 -2.219,1.936c-1.256,0.632 -2.843,0.867 -4.359,-0.172c-1.578,-1.082 -3.25,-3.933 -3.868,-10.504c-0.059,-0.631 0.364,-1.207 0.984,-1.339l0.641,-0.137c0.675,-0.144 1.34,0.287 1.483,0.962c0.109,0.509 -0.11,1.012 -0.513,1.29Zm7.844,1.908c-0.108,-0.021 -0.215,-0.056 -0.318,-0.106c0.117,0.057 0.223,0.089 0.318,0.106Z"/><path d="M19.287,120.154c0.022,-0.078 0.051,-0.156 0.089,-0.231c0.265,-0.525 0.475,-0.779 0.565,-0.867l0.414,-0.276l0.517,-0.099l0.271,0.036l0.284,0.106l0.249,0.171l0.183,0.199l0.14,0.243l0.086,0.281l0.018,0.326l-0.063,0.331c-0.162,0.539 -1.503,2.981 -4.226,3.529c-0.569,0.114 -1.721,0.49 -3.086,0.133c-1.346,-0.352 -2.984,-1.394 -4.391,-4.363c-0.295,-0.624 -0.029,-1.37 0.595,-1.665c0.623,-0.296 1.369,-0.029 1.665,0.594c0.929,1.962 1.875,2.782 2.764,3.015c0.869,0.227 1.598,-0.092 1.96,-0.165c0.903,-0.182 1.582,-0.832 1.966,-1.298Z"/><path d="M3.37,87.645c0.057,-0.127 0.136,-0.246 0.238,-0.353c0.476,-0.498 1.268,-0.517 1.767,-0.04l0.298,0.43l0.105,0.5l-0.088,0.489l-0.28,0.468c-0.364,0.439 -2.044,1.606 -2.812,3.969c-0.498,1.536 -0.588,3.577 0.291,6.245c1.482,4.499 4.213,5.738 4.775,5.981c0.38,0.164 0.654,0.506 0.732,0.913c0.077,0.406 -0.052,0.825 -0.345,1.118c-3.258,3.257 -0.937,7.223 1.311,9.058c0.463,0.378 0.925,0.669 1.343,0.829c0.158,0.061 0.403,0.099 0.446,0.106c0.63,-0.233 1.336,0.075 1.591,0.701c0.26,0.639 -0.048,1.369 -0.687,1.629c-0.655,0.267 -1.611,0.222 -2.659,-0.28c-1.742,-0.835 -3.921,-2.962 -4.912,-5.558c-0.833,-2.181 -0.877,-4.67 0.744,-7c-1.41,-0.94 -3.446,-2.867 -4.713,-6.715c-1.098,-3.331 -0.917,-5.882 -0.294,-7.8c0.793,-2.442 2.665,-4.251 3.149,-4.69Zm0.001,1.024c0.062,0.143 0.154,0.273 0.277,0.391c-0.12,-0.115 -0.212,-0.248 -0.277,-0.391Z"/><path d="M2.436,78.016c-1.935,-1.378 -2.8,-4.149 -2.582,-6.948c0.143,-1.847 0.751,-3.66 1.73,-4.965c1.124,-1.498 2.713,-2.367 4.67,-2.121c0.685,0.086 1.171,0.711 1.085,1.396c-0.086,0.684 -0.712,1.17 -1.396,1.084c-1,-0.125 -1.785,0.376 -2.359,1.141c-0.719,0.958 -1.133,2.302 -1.238,3.658c-0.104,1.343 0.09,2.71 0.673,3.737c0.477,0.839 1.244,1.416 2.348,1.416l0.369,0.042l0.285,0.114l0.227,0.16l0.243,0.293l0.133,0.311l0.039,0.457l-0.102,0.384l-0.189,0.3l-0.219,0.203l-0.389,0.19c-0.112,0.033 -2.056,0.421 -3.113,3.693c-0.999,3.092 -0.06,4.564 1.148,4.931c0.336,0.102 0.666,0.142 0.871,0.036c0.614,-0.315 1.368,-0.074 1.684,0.539c0.316,0.614 0.074,1.368 -0.539,1.684c-1.221,0.629 -3.965,0.376 -5.33,-1.876c-0.766,-1.265 -1.138,-3.222 -0.213,-6.083c0.578,-1.788 1.381,-2.982 2.164,-3.776Z"/><path d="M1.753,40.971c-0.405,-0.326 -0.8,-0.728 -1.137,-1.221c-0.799,-1.172 -1.313,-2.865 -0.737,-5.312c0.212,-0.902 0.914,-1.942 1.686,-2.775c0.76,-0.819 1.572,-1.432 1.906,-1.596c0.619,-0.303 1.369,-0.047 1.672,0.573c0.304,0.619 0.047,1.369 -0.572,1.672c-0.212,0.104 -0.691,0.532 -1.173,1.051c-0.469,0.506 -0.957,1.099 -1.086,1.648c-0.36,1.529 -0.13,2.598 0.37,3.33c0.74,1.086 1.969,1.42 2.221,1.493c0.539,0.156 0.907,0.651 0.902,1.211c-0.005,0.561 -0.382,1.05 -0.923,1.196c-0.29,0.078 -0.556,0.131 -0.802,0.196c-0.171,0.045 -0.331,0.084 -0.472,0.213c-0.406,0.371 -0.684,1.118 -1.073,2.64c-0.313,1.226 -0.379,2.078 -0.156,2.783c0.36,1.134 1.37,1.845 2.714,3.044c0.274,0.244 0.427,0.596 0.418,0.963c-0.009,0.367 -0.179,0.712 -0.465,0.942c-1.243,1.003 -1.939,2.078 -2.219,3.169c-0.42,1.644 0.094,3.284 0.882,4.652c0.907,1.574 2.191,2.813 3.076,3.266c0.614,0.315 0.857,1.069 0.543,1.683c-0.315,0.614 -1.068,0.857 -1.682,0.543c-1.164,-0.597 -2.91,-2.173 -4.103,-4.243c-1.102,-1.913 -1.726,-4.224 -1.138,-6.521c0.304,-1.186 0.927,-2.379 2.002,-3.512c-1.212,-1.121 -2.034,-2.042 -2.411,-3.231c-0.333,-1.051 -0.351,-2.329 0.117,-4.157c0.529,-2.07 1.087,-3.11 1.64,-3.7Z"/><path d="M9.937,19.239c0.025,0.006 0.05,0.013 0.075,0.021c0.657,0.21 1.02,0.914 0.81,1.572l-0.23,0.499l-0.37,0.373l-0.238,0.126l-0.299,0.08l-0.317,0.007l-0.281,-0.061l-0.292,-0.141l-0.241,-0.198c-0.056,-0.059 -0.218,-0.293 -0.296,-0.409c-1.142,-0.305 -3.455,0.067 -4.579,2.341c-0.963,1.951 -1.139,3.41 -0.897,4.501c0.331,1.496 1.442,2.194 1.81,2.458l0.338,0.286l0.208,0.3c0.309,0.617 0.06,1.369 -0.556,1.678c-0.491,0.247 -1.068,0.139 -1.439,-0.227l-0.007,-0.005c-0.482,-0.345 -1.726,-1.204 -2.435,-2.837c-0.68,-1.566 -0.923,-3.9 0.737,-7.261c1.898,-3.843 5.971,-4.165 7.746,-3.564l0.344,0.154l0.283,0.192c0.042,0.033 0.084,0.072 0.126,0.115Z"/><path d="M10.741,19.876c0.317,0.613 0.078,1.367 -0.535,1.685c-0.613,0.317 -1.367,0.077 -1.685,-0.535c-0.959,-1.853 -0.803,-3.79 0.072,-5.559c1.178,-2.382 3.731,-4.44 6.3,-5.367c3.256,-1.176 6.432,-0.541 7.514,2.625c0.223,0.652 -0.126,1.364 -0.779,1.587c-0.653,0.223 -1.364,-0.126 -1.587,-0.779c-0.603,-1.764 -2.486,-1.737 -4.299,-1.082c-1.672,0.604 -3.348,1.806 -4.391,3.269c-0.906,1.268 -1.339,2.747 -0.61,4.156Z"/><path d="M32.613,11.82c0.359,0.219 0.598,0.615 0.598,1.066c0,0.218 -0.012,0.369 -0.027,0.461l-0.131,0.419l-0.159,0.244l-0.202,0.195l-0.252,0.152l-0.315,0.096l-0.42,-0.001l-0.437,-0.161l-0.345,-0.299l-0.204,-0.32c-0.14,-0.278 -0.421,-1.077 -0.976,-1.896c-0.682,-1.006 -1.847,-2.074 -3.834,-1.798c-0.217,0.03 -1.535,0.202 -2.594,0.794c-0.431,0.241 -0.85,0.537 -0.958,1.015c-0.074,0.326 0.011,0.707 0.234,1.169c0.3,0.621 0.039,1.369 -0.583,1.669c-0.621,0.299 -1.369,0.038 -1.669,-0.583c-0.53,-1.1 -0.596,-2.031 -0.42,-2.807c0.265,-1.174 1.118,-2.054 2.176,-2.645c1.421,-0.794 3.18,-1.048 3.47,-1.088c4.024,-0.559 6.253,2.793 7.048,4.318Z"/><path d="M44.038,19.991c2.335,-4.787 2.907,-8.117 3.038,-8.893c0.843,-4.966 -1.315,-7.981 -4.254,-7.963c-3.166,0.019 -6.609,3.32 -7.8,10.332c-0.197,1.162 -0.268,2.531 -0.293,3.526c0.045,0.129 0.07,0.268 0.07,0.412c-0,1.107 -0.096,1.612 -0.123,1.683l-0.148,0.275l-0.174,0.198l-0.285,0.197l-0.285,0.103l-0.523,0.007l-0.273,-0.088l-0.285,-0.179l-0.274,-0.321l-0.16,-0.42c-0.063,-0.317 -0.136,-3.31 0.289,-5.812c1.48,-8.719 6.312,-12.389 10.249,-12.413c4.165,-0.025 7.929,3.842 6.734,10.882c-0.151,0.888 -0.825,4.906 -3.779,10.61l-0.196,0.28l-0.231,0.198l-0.268,0.137l-0.332,0.078l-0.327,-0.006l-0.299,-0.077l-0.459,-0.295l-0.224,-0.292c-0.015,-0.028 -0.047,-0.092 -0.206,-0.56c-0.223,-0.653 0.127,-1.364 0.78,-1.586c0.012,-0.005 0.025,-0.009 0.038,-0.013Z"/><path d="M41.105,18.77c0.043,-0.089 0.107,-0.224 0.166,-0.371c0.221,-0.551 0.546,-1.485 1.084,-3.068c0.941,-2.767 1.237,-4.845 1.116,-6.336c-0.071,-0.867 -0.279,-1.511 -0.595,-1.944c-0.64,-0.877 -1.724,-0.614 -2.432,0.265c-3.749,4.657 -3.394,9.662 -3.345,10.536c0.023,0.413 -0.294,0.767 -0.707,0.79c-0.414,0.024 -0.768,-0.293 -0.791,-0.706c-0.054,-0.959 -0.44,-6.45 3.675,-11.561c1.106,-1.374 2.721,-1.752 3.953,-1.008c0.699,0.421 1.314,1.233 1.598,2.546c0.36,1.664 0.193,4.24 -1.052,7.901c-0.806,2.37 -1.164,3.349 -1.391,3.755c-0.08,0.143 -0.155,0.243 -0.223,0.316l-0.23,0.192l-0.284,0.119l-0.294,0.032c-0.414,0 -0.75,-0.336 -0.75,-0.75c-0,-0.327 0.209,-0.605 0.502,-0.708Z"/><path d="M9.032,14.115c-0.071,0.408 -0.459,0.682 -0.867,0.612c-0.408,-0.07 -0.682,-0.458 -0.612,-0.866c0.062,-0.361 -0.003,-0.912 -0.079,-1.557c-0.135,-1.141 -0.33,-2.528 -0.248,-3.766c0.08,-1.206 0.431,-2.275 1.206,-2.974c0.765,-0.691 1.978,-1.073 3.896,-0.738c0.295,0.051 0.591,0.205 0.866,0.471c0.277,0.27 0.547,0.675 0.786,1.164c0.795,1.618 1.323,4.226 1.39,4.577c0.078,0.407 -0.189,0.8 -0.596,0.877c-0.407,0.078 -0.8,-0.189 -0.877,-0.596c-0.062,-0.322 -0.535,-2.714 -1.263,-4.198c-0.132,-0.268 -0.269,-0.503 -0.418,-0.676c-0.054,-0.062 -0.087,-0.131 -0.146,-0.142c-1.287,-0.224 -2.12,-0.089 -2.633,0.374c-0.503,0.455 -0.662,1.176 -0.714,1.96c-0.076,1.148 0.116,2.434 0.241,3.492c0.096,0.821 0.146,1.526 0.068,1.986Z"/><path d="M17.347,9.83c-0.282,-1.548 -0.785,-4.274 -0.854,-4.493c-0.431,-1.353 -1.859,-2.327 -3.444,-2.694c-4.203,-0.973 -8.927,2.462 -4.913,14.866c0.023,0.07 0.045,0.15 0.067,0.233c0.291,0.296 0.428,0.731 0.326,1.165l-0.23,0.61l-0.346,0.374l-0.305,0.163l-0.278,0.068l-0.38,-0.009l-0.332,-0.107l-0.306,-0.208l-0.277,-0.362c-0.07,-0.133 -0.16,-0.671 -0.318,-1.158c-2.806,-8.67 -1.581,-13.641 0.736,-16.096c2.302,-2.44 5.789,-2.67 8.503,-1.527c1.865,0.785 3.334,2.212 3.879,3.924c0.114,0.358 1.188,6.031 1.159,6.468l-0.06,0.321l-0.161,0.328l-0.215,0.24l-0.235,0.161l-0.33,0.118l-0.351,0.022l-0.348,-0.077l-0.32,-0.178l-0.336,-0.388c-0.046,-0.082 -0.178,-0.408 -0.35,-1.078c-0.06,-0.235 -0.049,-0.471 0.019,-0.686Z"/><path d="M14.759,28.147c-0.23,0.231 -0.575,0.609 -0.799,1.003c-0.578,1.021 -0.956,2.521 -0.123,4.134c0.973,1.883 3.013,2.299 4.951,2.107c2.014,-0.2 3.971,-1.048 4.671,-1.88c0.211,-0.251 0.561,-0.336 0.863,-0.209c0.303,0.126 0.488,0.434 0.458,0.761c-0.073,0.784 0.039,1.35 0.348,1.728c0.472,0.578 1.326,0.667 2.282,0.581c1.946,-0.174 4.309,-1.209 5.761,-2.181c0.351,-0.235 0.646,-0.464 0.861,-0.678c0.009,-0.008 0.017,-0.016 0.026,-0.025c-0.214,-0.168 -0.328,-0.447 -0.274,-0.732c0.078,-0.406 0.472,-0.673 0.878,-0.595c0.277,0.054 0.482,0.146 0.63,0.25l0.195,0.169l0.158,0.227l0.096,0.264l0.023,0.264l-0.043,0.281c-0.029,0.109 -0.076,0.225 -0.144,0.346c-0.229,0.411 -0.784,0.948 -1.571,1.475c-1.973,1.322 -5.447,2.699 -7.791,2.422c-0.943,-0.112 -1.723,-0.475 -2.249,-1.118c-0.275,-0.337 -0.486,-0.757 -0.604,-1.277c-1.136,0.674 -2.755,1.254 -4.427,1.42c-2.542,0.251 -5.154,-0.441 -6.43,-2.911c-1.306,-2.528 -0.421,-4.85 0.551,-6.184c0.451,-0.621 0.932,-1.029 1.232,-1.19l0.264,-0.109l0.257,-0.038l0.231,0.028l0.179,0.071l0.147,0.1l0.122,0.132l0.137,0.287l0.028,0.278l-0.056,0.288c-0.115,0.36 -0.476,0.572 -0.838,0.511Z"/><path d="M14.369,40.558c-1.188,-0.271 -1.889,0.513 -2.136,1.241c-0.067,0.199 -0.084,0.482 -0.089,0.608c0.319,0.293 0.421,0.772 0.219,1.179c-0.245,0.495 -0.845,0.698 -1.34,0.453c-0.559,-0.277 -1.005,-1.082 -0.86,-2.143c0.229,-1.672 1.778,-3.981 4.705,-3.275c0.434,0.104 1.858,0.941 2.532,2.019c0.588,0.939 0.697,1.992 -0.201,2.946c-0.378,0.402 -1.011,0.422 -1.414,0.044c-0.402,-0.378 -0.421,-1.012 -0.043,-1.414c0.253,-0.269 -0.028,-0.542 -0.241,-0.786c-0.359,-0.412 -1.071,-0.836 -1.132,-0.872Z"/><path d="M28.809,43.979c-0.058,0.549 -0.551,0.947 -1.1,0.889c-0.549,-0.059 -0.947,-0.551 -0.889,-1.1c0.019,-0.18 0.131,-1.166 0.561,-2.014c0.368,-0.723 0.953,-1.328 1.782,-1.532c1.998,-0.493 3.141,-0.327 3.852,0.282c0.333,0.285 0.601,0.678 0.8,1.212c0.216,0.582 0.358,1.374 0.478,2.412c0.064,0.549 -0.329,1.045 -0.877,1.109c-0.549,0.064 -1.045,-0.329 -1.109,-0.878c-0.083,-0.713 -0.168,-1.288 -0.298,-1.737c-0.077,-0.265 -0.147,-0.473 -0.294,-0.599c-0.114,-0.097 -0.274,-0.109 -0.475,-0.112c-0.415,-0.006 -0.936,0.089 -1.599,0.252c-0.34,0.084 -0.474,0.45 -0.589,0.755c-0.184,0.484 -0.232,0.961 -0.243,1.061Z"/><path d="M20.197,43.442l0.095,-0.045l0.465,-0.025l0.006,0.002c0.286,-0.045 0.663,-0.116 1.162,-0.23c0.58,-0.134 1.174,0.161 1.419,0.704c0.245,0.543 0.073,1.184 -0.412,1.531c-0.743,0.532 -0.665,0.561 -1.291,1.179c-0.337,0.332 -0.832,0.446 -1.28,0.294c-0.448,-0.153 -0.772,-0.545 -0.836,-1.013c-0.001,-0.006 -0.002,-0.012 -0.003,-0.018c-0.59,-0.326 -0.817,-1.066 -0.505,-1.669l0.315,-0.403l0.221,-0.155l0.311,-0.127c0.051,-0.014 0.141,-0.011 0.333,-0.025Z"/><path d="M23.54,48.031l-0.001,-0.002c-0.139,-0.024 -0.273,-0.087 -0.383,-0.191c-0.303,-0.283 -0.319,-0.758 -0.036,-1.06l0.243,-0.177l0.242,-0.073l0.327,0.017l0.298,0.119c0.387,0.218 0.886,0.836 0.851,1.476c-0.023,0.43 -0.232,0.929 -0.967,1.29c-1.66,0.815 -2.66,0.729 -3.215,0.395c-0.496,-0.299 -0.772,-0.821 -0.851,-1.46c-0.118,-0.967 0.279,-2.262 0.303,-2.596c0.03,-0.413 0.39,-0.724 0.803,-0.693c0.413,0.03 0.723,0.389 0.693,0.802c-0.019,0.265 -0.311,1.181 -0.324,2c-0.002,0.157 0.006,0.31 0.039,0.447c0.021,0.086 0.039,0.172 0.111,0.215c0.1,0.06 0.241,0.052 0.429,0.025c0.351,-0.052 0.792,-0.207 1.351,-0.481c0.029,-0.014 0.06,-0.034 0.087,-0.053Z"/><path d="M18.341,48.428l0.677,0.06c-0.04,-0.303 0.111,-0.613 0.399,-0.762c0.367,-0.191 0.82,-0.047 1.01,0.321c0.143,0.275 0.2,0.508 0.211,0.699l-0.012,0.261l-0.073,0.263l-0.135,0.235l-0.174,0.185l-0.226,0.152c-0.099,0.052 -0.209,0.094 -0.329,0.125c-0.697,0.18 -1.845,-0.108 -1.982,-0.178c-0.618,-0.317 -0.901,-0.607 -1.056,-0.894c-0.124,-0.231 -0.179,-0.475 -0.187,-0.775c-0.008,-0.271 0.035,-0.619 -0.009,-1.13c-0.036,-0.413 0.27,-0.777 0.682,-0.812c0.412,-0.036 0.776,0.27 0.812,0.682c0.038,0.434 0.023,0.764 0.016,1.031c-0.003,0.12 -0.02,0.214 0.009,0.297c0.009,0.025 0.038,0.035 0.068,0.058c0.077,0.058 0.175,0.117 0.299,0.182Z"/><path d="M67.383,127.853c0.066,-0.053 0.429,-0.351 0.681,-0.733c0.743,-1.125 1.42,-3.3 1.081,-7.258c-0.059,-0.688 0.451,-1.294 1.138,-1.353c0.688,-0.059 1.293,0.451 1.352,1.139c0.49,5.707 -0.976,8.369 -1.999,9.523c-0.628,0.709 -1.206,0.971 -1.421,1.04c-1.979,0.64 -3.394,0.382 -4.417,-0.258c-0.963,-0.603 -1.612,-1.595 -2.009,-2.754c-0.49,-1.428 -0.593,-3.113 -0.648,-4.298c-0.032,-0.689 0.502,-1.274 1.191,-1.306c0.689,-0.032 1.275,0.501 1.307,1.19c0.044,0.95 0.102,2.285 0.464,3.449c0.204,0.654 0.487,1.265 1.022,1.6c0.525,0.329 1.253,0.334 2.258,0.019Z"/><path d="M59.406,123.203c-0.047,-0.061 -0.09,-0.127 -0.126,-0.198c-0.314,-0.614 -0.071,-1.368 0.544,-1.682c0.189,-0.097 0.335,-0.162 0.44,-0.197l0.449,-0.079l0.402,0.057l0.314,0.142l0.292,0.247l0.186,0.277l0.105,0.284l0.042,0.296c0.012,0.274 -0.206,1.091 -0.422,2.898c-0.25,2.097 -1.273,4.377 -3.238,5.115c-0.887,0.333 -1.983,0.391 -3.326,-0.063c-1.216,-0.412 -1.802,-1.039 -2.135,-2.426c-0.217,-0.904 -0.297,-2.287 -0.5,-4.474c-0.214,-2.291 -0.149,-2.533 -0.114,-2.751c0.108,-0.681 0.749,-1.146 1.431,-1.038c0.681,0.109 1.146,0.75 1.037,1.431c-0.026,0.168 -0.03,0.354 0.135,2.127c0.153,1.647 0.224,2.81 0.352,3.646c0.097,0.634 0.142,0.963 0.595,1.117c0.665,0.225 1.207,0.256 1.646,0.091c0.485,-0.182 0.812,-0.59 1.057,-1.057c0.322,-0.612 0.497,-1.337 0.578,-2.015c0.081,-0.679 0.178,-1.293 0.256,-1.748Z"/><path d="M32.961,13.086l-0.23,0.084c-0.265,0.573 -0.926,0.866 -1.537,0.658c-0.653,-0.222 -1.003,-0.932 -0.781,-1.585l0.341,-0.622c0.173,-0.219 0.401,-0.422 0.667,-0.593c0.554,-0.356 1.288,-0.563 1.874,-0.565l0.513,0.051l0.379,0.12l0.338,0.193l0.322,0.311l0.206,0.349l0.112,0.387l0.016,0.375l-0.054,0.337c-0.169,0.669 -0.85,1.074 -1.519,0.905c-0.263,-0.066 -0.485,-0.212 -0.647,-0.405Z"/></g></svg>
